<svg width="20" height="20" viewBox="0 0 20 20" fill="none" xmlns="http://www.w3.org/2000/svg">
<path d="M2.08337 9.99999C2.08337 6.26804 2.08337 4.40207 3.24274 3.24269C4.40212 2.08333 6.26809 2.08333 10 2.08333C13.7319 2.08333 15.5979 2.08333 16.7573 3.24269C17.9167 4.40207 17.9167 6.26804 17.9167 9.99999C17.9167 13.7319 17.9167 15.5979 16.7573 16.7573C15.5979 17.9167 13.7319 17.9167 10 17.9167C6.26809 17.9167 4.40212 17.9167 3.24274 16.7573C2.08337 15.5979 2.08337 13.7319 2.08337 9.99999Z" stroke="#0097EF" stroke-width="1.25" stroke-linecap="round" stroke-linejoin="round"/>
<path d="M17.9167 11.25H13.8119C13.1102 11.25 12.5588 11.8363 12.2496 12.456C11.9136 13.1292 11.2408 13.75 10 13.75C8.75929 13.75 8.08648 13.1292 7.75049 12.456C7.44122 11.8363 6.88985 11.25 6.18809 11.25H2.08337" stroke="#0097EF" stroke-width="1.25" stroke-linejoin="round"/>
</svg>
