<svg width="20" height="20" viewBox="0 0 20 20" fill="none" xmlns="http://www.w3.org/2000/svg">
<path d="M11.3481 17.8058C10.9868 18.1441 10.5037 18.3333 10.0009 18.3333C9.49816 18.3333 9.01516 18.1441 8.65375 17.8058C5.34419 14.6883 0.908969 11.2057 3.07189 6.14969C4.24136 3.41594 7.04861 1.66664 10.0009 1.66664C12.9533 1.66664 15.7605 3.41594 16.93 6.14969C19.0901 11.1994 14.6659 14.699 11.3481 17.8058Z" stroke="#717D84" stroke-width="1.25"/>
<path d="M12.9165 9.16666C12.9165 10.7775 11.6106 12.0833 9.9998 12.0833C8.38897 12.0833 7.08313 10.7775 7.08313 9.16666C7.08313 7.55584 8.38897 6.25 9.9998 6.25C11.6106 6.25 12.9165 7.55584 12.9165 9.16666Z" stroke="#717D84" stroke-width="1.25"/>
</svg>
